<?xml version="1.0" encoding="UTF-8"?>
<!-- Do not edit this file with editors other than draw.io -->
<!DOCTYPE svg PUBLIC "-//W3C//DTD SVG 1.1//EN" "http://www.w3.org/Graphics/SVG/1.1/DTD/svg11.dtd">
<svg xmlns="http://www.w3.org/2000/svg" xmlns:xlink="http://www.w3.org/1999/xlink" version="1.1" width="420px" height="81px" viewBox="-0.5 -0.5 420 81" content="&lt;mxfile host=&quot;app.diagrams.net&quot; modified=&quot;2024-01-21T09:25:06.115Z&quot; agent=&quot;Mozilla/5.0 (Windows NT 10.0; Win64; x64) AppleWebKit/537.36 (KHTML, like Gecko) Chrome/120.0.0.0 Safari/537.36 Edg/120.0.0.0&quot; etag=&quot;lerXxL-x-tPT6crJjIJ6&quot; version=&quot;22.1.21&quot; type=&quot;device&quot;&gt;&lt;diagram name=&quot;第 1 页&quot; id=&quot;2F9-EmuL521SoThDyybP&quot;&gt;3VZdU6MwFP01fbQDRWj7qLXVB3fX0Rl3fIzkAtkN3G4IQv31e1NCAWn9GHV2Rx8qOffm65x7koy8RVqdK7ZOviEHOZo4vBp5Z6PJZO4E9GuATQ0EgV8DsRK8htwWuBGPYEHHooXgkPcSNaLUYt0HQ8wyCHUPY0ph2U+LUPZnXbMYBsBNyOQQ/Sm4Tmp0Npm2+AWIOGlmdoN5HUlZk2x3kieMY9mBvOXIWyhEXX+l1QKk4a7hpe63OhDdLUxBpl/TIRer61t2LS6c28eq/HEFd3fnR+5xPcwDk4XdsV2t3jQUACdGbBOVTjDGjMlli54qLDIOZh6HWm3OJeKaQJfAX6D1xsrLCo0EJTqVNlrPaSY6uDkL5VioEJ7bkS0SpmLQz+V5Ow2odgFT0GpDHRVIpsVDfyHMVlG8y2uJpg/L9Vt430N7IGm9pxHSjrv8B38KbAJH+ZbBE0ogdqotc02cvmLzf9WMRAurB6vxga6takaCMhEabtZsS25JXu4rFAkpFyhRbft6nMEsCgnPtcLf0IkE4Qzuo918D6A0VM+rOhTBdvAC6x17eNBxUrfL1opuc1IkHRvOnM/SzXtJuHBHRSuMF0UO/Q21uqOj7ZBaq+84kIyo1APSM8yMCZkUcUbNkMgF9UQym9MR1Agj6Jw7sd1SwfnWzPsKoW/wD1DWd/vKeq4/UDbYI6z3acL673ake3zAkURmSvGVJGKVyOLXGvTLqO36/5va0y937QWvvff+6bUXvMw7FlqKjOq9edAZcjnLkx3TTTFfsnuQV5gLLdAU9T1qjemeatdGj6FlOkrQ42xt5k+r2Dxjx6zMvTGkTMjh3Xc2P5kem06UygUN9sR2H2CYif/04puPJ0PPzNyhZwJ37L9ZPWq2D9FtrPOa95Z/AQ==&lt;/diagram&gt;&lt;/mxfile&gt;" style="background-color: rgb(255, 255, 255);"><defs/><g><path d="M 320 40 L 353.63 40" fill="none" stroke="rgb(0, 0, 0)" stroke-miterlimit="10" pointer-events="stroke"/><path d="M 358.88 40 L 351.88 43.5 L 353.63 40 L 351.88 36.5 Z" fill="rgb(0, 0, 0)" stroke="rgb(0, 0, 0)" stroke-miterlimit="10" pointer-events="all"/><rect x="210" y="0" width="110" height="80" rx="12" ry="12" fill="#dae8fc" stroke="#6c8ebf" pointer-events="all"/><g transform="translate(-0.5 -0.5)"><switch><foreignObject pointer-events="none" width="100%" height="100%" requiredFeatures="http://www.w3.org/TR/SVG11/feature#Extensibility" style="overflow: visible; text-align: left;"><div xmlns="http://www.w3.org/1999/xhtml" style="display: flex; align-items: unsafe center; justify-content: unsafe center; width: 108px; height: 1px; padding-top: 40px; margin-left: 211px;"><div data-drawio-colors="color: rgb(0, 0, 0); " style="box-sizing: border-box; font-size: 0px; text-align: center;"><div style="display: inline-block; font-size: 12px; font-family: Helvetica; color: rgb(0, 0, 0); line-height: 1.2; pointer-events: all; white-space: normal; overflow-wrap: normal;"><font style="font-size: 20px;">F</font></div></div></div></foreignObject><text x="265" y="44" fill="rgb(0, 0, 0)" font-family="Helvetica" font-size="12px" text-anchor="middle">F</text></switch></g><rect x="360" y="25" width="60" height="30" fill="none" stroke="none" pointer-events="all"/><g transform="translate(-0.5 -0.5)"><switch><foreignObject pointer-events="none" width="100%" height="100%" requiredFeatures="http://www.w3.org/TR/SVG11/feature#Extensibility" style="overflow: visible; text-align: left;"><div xmlns="http://www.w3.org/1999/xhtml" style="display: flex; align-items: unsafe center; justify-content: unsafe center; width: 58px; height: 1px; padding-top: 40px; margin-left: 361px;"><div data-drawio-colors="color: rgb(0, 0, 0); " style="box-sizing: border-box; font-size: 0px; text-align: center;"><div style="display: inline-block; font-size: 12px; font-family: Helvetica; color: rgb(0, 0, 0); line-height: 1.2; pointer-events: all; white-space: normal; overflow-wrap: normal;"><font color="#ff0000">Yes</font>/No</div></div></div></foreignObject><text x="390" y="44" fill="rgb(0, 0, 0)" font-family="Helvetica" font-size="12px" text-anchor="middle">Yes/No</text></switch></g><rect x="0" y="25" width="60" height="30" fill="none" stroke="none" pointer-events="all"/><g transform="translate(-0.5 -0.5)"><switch><foreignObject pointer-events="none" width="100%" height="100%" requiredFeatures="http://www.w3.org/TR/SVG11/feature#Extensibility" style="overflow: visible; text-align: left;"><div xmlns="http://www.w3.org/1999/xhtml" style="display: flex; align-items: unsafe center; justify-content: unsafe center; width: 58px; height: 1px; padding-top: 40px; margin-left: 1px;"><div data-drawio-colors="color: rgb(0, 0, 0); " style="box-sizing: border-box; font-size: 0px; text-align: center;"><div style="display: inline-block; font-size: 12px; font-family: Helvetica; color: rgb(0, 0, 0); line-height: 1.2; pointer-events: all; white-space: normal; overflow-wrap: normal;"><font style="font-size: 14px;">Spam Flitering</font></div></div></div></foreignObject><text x="30" y="44" fill="rgb(0, 0, 0)" font-family="Helvetica" font-size="12px" text-anchor="middle">Spam Flite...</text></switch></g><path d="M 181 40.1 L 201 40.1 L 203.63 40.07" fill="none" stroke="rgb(0, 0, 0)" stroke-miterlimit="10" pointer-events="stroke"/><path d="M 208.88 40.01 L 201.92 43.59 L 203.63 40.07 L 201.84 36.59 Z" fill="rgb(0, 0, 0)" stroke="rgb(0, 0, 0)" stroke-miterlimit="10" pointer-events="all"/><path d="M 114.6 23.77 C 113.91 23.79 113.22 23.8 112.45 24.07 C 111.75 24.35 111.3 24.8 111.1 25.39 C 110.83 26.46 111.16 27.07 111.34 27.32 C 111.91 28.01 112.81 27.96 113.44 27.58 C 114.03 27.2 114.39 26.6 114.54 25.72 C 114.61 25.19 114.61 24.48 114.6 23.77 Z M 121.54 35.13 C 119.59 36.42 117.04 37.32 113.73 37.28 C 107.25 37.28 100 32.18 100 23.24 C 100 17.28 104.44 9.25 113.44 9.25 C 120.54 9.25 126.72 13.33 126.72 21.7 C 126.72 24.3 125.71 28.69 122.86 30.58 C 121.24 31.74 119.49 31.91 117.69 31.09 C 116.7 30.67 115.74 29.82 115.06 28.52 C 114.15 29.35 113.28 30.46 110.47 30.2 C 108.72 29.93 107.47 28.69 107.52 26.31 C 107.61 24.21 108.84 22.91 110.83 22.39 C 111.73 22.14 112.44 22.03 114.61 21.83 L 114.6 21.15 C 114.6 20.41 114.42 19.9 114.13 19.64 C 113.82 19.31 113.37 19.14 112.92 19.11 C 111.94 19.14 111.22 19.63 111 20.59 C 110.95 20.91 110.73 21.08 110.49 21.03 L 108.3 20.72 C 108.1 20.68 107.91 20.61 107.98 20.22 C 108.3 18.66 109.11 17.92 109.96 17.39 C 111.22 16.65 113.29 16.48 114.63 16.75 C 116.86 17.3 117.97 18.26 117.97 20.91 L 117.97 25.75 C 117.99 26.8 118.45 27.49 118.92 27.9 C 119.68 28.5 120.69 28.11 121.45 27.43 C 122.83 26.13 123.49 24.15 123.69 21.77 C 123.88 17.61 121.96 15.21 119.58 13.8 C 116.73 12.11 111.64 11.28 107.77 13.76 C 105.31 15.35 103 18.45 102.69 23.03 C 102.45 27.17 104.34 30.12 106.33 32.12 C 110.37 35.78 116.31 35.96 120.67 33.42 C 121.42 33.12 121.77 33.22 122.05 33.81 C 122.28 34.43 122.08 34.74 121.54 35.13 Z M 178.28 18.78 L 178.28 21.5 L 145.05 43.63 L 127.67 32.39 L 127.65 29.67 C 129.47 26.92 130.71 23.1 130.25 18.78 Z M 181 70.75 L 109.99 70.75 L 109.99 40.21 C 117.31 41.66 123.18 38.28 126.31 34.54 L 145.05 46.81 L 181 22.74 Z" fill="#d9a741" stroke="none" pointer-events="all"/><path d="M 178.28 18.78 L 178.28 21.5 L 145.05 43.63 L 127.67 32.39 L 127.65 29.67 L 145.05 40.91 Z M 181 70.75 L 109.99 70.75 L 109.99 68.03 L 181 68.03 Z" fill-opacity="0.3" fill="#000000" stroke="none" pointer-events="all"/></g><switch><g requiredFeatures="http://www.w3.org/TR/SVG11/feature#Extensibility"/><a transform="translate(0,-5)" xlink:href="https://www.drawio.com/doc/faq/svg-export-text-problems" target="_blank"><text text-anchor="middle" font-size="10px" x="50%" y="100%">Text is not SVG - cannot display</text></a></switch></svg>